<?xml version="1.0" standalone="no"?>
<!DOCTYPE svg PUBLIC "-//W3C//DTD SVG 20010904//EN"
 "http://www.w3.org/TR/2001/REC-SVG-20010904/DTD/svg10.dtd">
<svg version="1.0" xmlns="http://www.w3.org/2000/svg"
 width="132.000000pt" height="132.000000pt" viewBox="0 0 132.000000 132.000000"
 preserveAspectRatio="xMidYMid meet">
<metadata>
Created by potrace 1.14, written by Peter Selinger 2001-2017
</metadata>
<g transform="translate(0.000000,132.000000) scale(0.100000,-0.100000)"
fill="#000000" stroke="none">
<path d="M395 1118 l-145 -142 5 -40 c3 -23 8 -58 11 -79 3 -20 7 -47 9 -60 9
-75 18 -144 20 -157 2 -8 6 -40 10 -70 8 -63 14 -105 20 -140 2 -14 7 -50 10
-80 3 -30 10 -77 15 -105 7 -42 8 -38 4 30 -3 44 -7 91 -9 105 -2 14 -7 52
-10 85 -7 66 -12 109 -19 170 -5 35 -17 145 -31 282 l-4 42 97 80 c53 44 98
79 99 78 2 -2 10 -65 18 -137 4 -30 8 -66 10 -80 2 -14 6 -52 10 -85 3 -33 8
-71 10 -85 2 -14 6 -52 10 -85 3 -33 8 -71 10 -85 2 -14 6 -52 10 -85 3 -33 8
-71 10 -85 3 -23 13 -104 20 -170 2 -14 3 -37 4 -52 1 -16 5 -28 10 -28 4 0 7
21 5 48 -1 26 -5 108 -8 182 -4 74 -8 178 -11 230 -13 267 -28 587 -29 628 0
17 -4 32 -8 32 -4 0 -73 -64 -153 -142z"/>
<path d="M681 1170 c19 -25 51 -65 70 -90 19 -25 36 -47 39 -50 3 -3 7 -74 9
-159 2 -146 1 -154 -19 -168 -20 -14 -20 -21 -16 -146 3 -73 5 -192 5 -266 1
-74 3 -132 6 -130 4 4 12 275 14 450 l1 66 76 47 c42 26 79 44 82 41 7 -7 8
-15 17 -108 4 -39 11 -90 15 -112 7 -35 8 -31 10 35 1 41 3 122 6 178 l5 104
-33 -23 c-18 -13 -53 -38 -77 -56 -24 -18 -47 -33 -51 -33 -3 0 -4 66 -2 146
l4 146 -59 52 c-32 29 -76 68 -98 87 l-40 34 36 -45z"/>
<path d="M1096 769 c42 -43 71 -81 69 -91 -2 -9 -6 -72 -10 -140 -4 -68 -9
-145 -11 -173 -2 -27 -6 -99 -9 -160 -6 -109 -10 -129 -23 -121 -4 2 -34 7
-66 11 -33 3 -63 8 -67 11 -5 2 -6 40 -4 84 2 44 0 80 -4 80 -4 0 -8 -6 -8
-12 -2 -36 -16 -144 -20 -151 -2 -4 -8 -5 -13 -2 -18 11 -202 20 -390 19 -150
-1 -222 -6 -310 -22 -160 -30 -194 -42 -198 -75 -2 -15 -1 -27 1 -27 3 0 35
11 72 26 150 56 247 69 515 69 193 0 317 -7 441 -26 35 -5 98 -14 139 -20 41
-6 78 -13 82 -15 5 -3 8 -1 8 5 0 12 -74 33 -143 40 -7 1 -4 63 8 176 2 22 7
72 10 110 4 39 8 81 10 95 2 14 6 63 10 110 4 47 8 97 11 111 3 23 -7 35 -84
94 l-87 67 71 -73z"/>
<path d="M972 305 c0 -16 2 -22 5 -12 2 9 2 23 0 30 -3 6 -5 -1 -5 -18z"/>
<path d="M358 160 c2 -16 6 -30 8 -30 2 0 4 14 4 30 0 17 -4 30 -8 30 -5 0 -7
-13 -4 -30z"/>
</g>
</svg>
